<svg width="44" height="45" viewBox="0 0 44 45" fill="none" xmlns="http://www.w3.org/2000/svg">
<path fill-rule="evenodd" clip-rule="evenodd" d="M1.40771 10.2498C1.97079 10.2498 2.46348 9.75979 2.46348 9.19979V7.16979C2.46348 6.60979 2.95618 6.11979 3.51926 6.11979H9.64277V7.16979C9.64277 8.84979 11.0505 10.2498 12.7397 10.2498C13.8659 10.2498 14.8513 9.68979 15.4143 8.70978C15.6959 8.21978 15.5551 7.58978 15.0624 7.30978C14.5697 7.02978 13.9363 7.16978 13.6547 7.65978C13.4436 7.93978 13.162 8.14979 12.7397 8.14979C12.1766 8.14979 11.6839 7.65979 11.6839 7.09979V3.17979C11.6839 2.61979 12.1766 2.12979 12.7397 2.12979C13.3028 2.12979 13.7955 2.61979 13.7955 3.17979C13.7955 3.17979 13.7955 5.06979 13.7955 5.20978C13.7955 5.76978 14.2882 6.25978 14.8513 6.25978H25.0571C25.6202 6.25978 26.1129 5.76978 26.1129 5.20978C26.1129 4.64979 25.6202 4.15979 25.0571 4.15979H15.6959C15.6959 3.87979 15.6959 3.52979 15.6959 3.10979C15.6959 1.42979 14.2882 0.0297852 12.5989 0.0297852C10.9097 0.0297852 9.502 1.42979 9.502 3.10979V4.15979H3.44887C1.75963 4.15979 0.351929 5.55978 0.351929 7.23978V9.26979C0.351929 9.82979 0.844625 10.2498 1.40771 10.2498Z" fill="white"/>
<path fill-rule="evenodd" clip-rule="evenodd" d="M40.2603 4.15985H34.1368V3.17985C34.1368 1.49985 32.7291 0.0998535 31.0398 0.0998535C29.3506 0.0998535 27.9429 1.49985 27.9429 3.17985V7.23985C27.9429 8.91985 29.3506 10.3199 31.0398 10.3199C31.6029 10.3199 32.0956 10.1799 32.5883 9.89985C33.081 9.61985 33.4329 9.26985 33.7145 8.77985C33.996 8.28985 33.8553 7.65985 33.3626 7.37985C32.8699 7.09985 32.2364 7.23985 31.9549 7.72985C31.8845 7.86985 31.7437 8.00985 31.6029 8.07985C31.4622 8.14985 31.251 8.21985 31.1102 8.21985C30.5471 8.21985 30.0545 7.72985 30.0545 7.16985V3.17985C30.0545 2.61985 30.5471 2.12985 31.1102 2.12985C31.6733 2.12985 32.166 2.61985 32.166 3.17985V5.20985C32.166 5.76985 32.6587 6.25985 33.2218 6.25985H40.4011C40.9641 6.25985 41.4568 6.74985 41.4568 7.30985V41.8899C41.4568 42.4499 40.9641 42.9398 40.4011 42.9398H3.44887C2.88579 42.9398 2.3931 42.4499 2.3931 41.8899V14.3799H38.2191C38.7822 14.3799 39.2749 13.8899 39.2749 13.3299C39.2749 12.7699 38.7822 12.2799 38.2191 12.2799H1.40771C0.844625 12.2799 0.351929 12.7699 0.351929 13.3299V41.8199C0.351929 43.4999 1.75963 44.8999 3.44887 44.8999H40.2603C41.9495 44.8999 43.3572 43.4999 43.3572 41.8199V7.23985C43.2869 5.55985 41.9495 4.15985 40.2603 4.15985Z" fill="white"/>
<path fill-rule="evenodd" clip-rule="evenodd" d="M10.5578 21.4499H8.51658V19.4199H10.5578V21.4499ZM12.5989 18.4399C12.5989 17.8799 12.1062 17.3899 11.5431 17.3899H7.46081C6.89773 17.3899 6.40503 17.8799 6.40503 18.4399V22.4999C6.40503 23.0599 6.89773 23.5499 7.46081 23.5499H11.5431C12.1062 23.5499 12.5989 23.0599 12.5989 22.4999V18.4399Z" fill="white"/>
<path fill-rule="evenodd" clip-rule="evenodd" d="M18.7929 21.4499H16.7517V19.4199H18.7929V21.4499ZM20.834 18.4399C20.834 17.8799 20.3413 17.3899 19.7783 17.3899H15.6959C15.1328 17.3899 14.6401 17.8799 14.6401 18.4399V22.4999C14.6401 23.0599 15.1328 23.5499 15.6959 23.5499H19.7783C20.3413 23.5499 20.834 23.0599 20.834 22.4999V18.4399Z" fill="white"/>
<path fill-rule="evenodd" clip-rule="evenodd" d="M26.9575 21.4499H24.9164V19.4199H26.9575V21.4499ZM28.9987 18.4399C28.9987 17.8799 28.506 17.3899 27.9429 17.3899H23.8606C23.2975 17.3899 22.8048 17.8799 22.8048 18.4399V22.4999C22.8048 23.0599 23.2975 23.5499 23.8606 23.5499H27.9429C28.506 23.5499 28.9987 23.0599 28.9987 22.4999V18.4399Z" fill="white"/>
<path fill-rule="evenodd" clip-rule="evenodd" d="M35.1222 21.4499H33.081V19.4199H35.1222V21.4499ZM37.1634 18.4399C37.1634 17.8799 36.6707 17.3899 36.1076 17.3899H32.0253C31.4622 17.3899 30.9695 17.8799 30.9695 18.4399V22.4999C30.9695 23.0599 31.4622 23.5499 32.0253 23.5499H36.1076C36.6707 23.5499 37.1634 23.0599 37.1634 22.4999V18.4399Z" fill="white"/>
<path fill-rule="evenodd" clip-rule="evenodd" d="M10.5578 29.5698H8.51658V27.5398H10.5578V29.5698ZM12.5989 26.5598C12.5989 25.9998 12.1062 25.5098 11.5431 25.5098H7.46081C6.89773 25.5098 6.40503 25.9998 6.40503 26.5598V30.6198C6.40503 31.1798 6.89773 31.6698 7.46081 31.6698H11.5431C12.1062 31.6698 12.5989 31.1798 12.5989 30.6198V26.5598Z" fill="white"/>
<path fill-rule="evenodd" clip-rule="evenodd" d="M18.7929 29.5698H16.7517V27.5398H18.7929V29.5698ZM20.834 26.5598C20.834 25.9998 20.3413 25.5098 19.7783 25.5098H15.6959C15.1328 25.5098 14.6401 25.9998 14.6401 26.5598V30.6198C14.6401 31.1798 15.1328 31.6698 15.6959 31.6698H19.7783C20.3413 31.6698 20.834 31.1798 20.834 30.6198V26.5598Z" fill="white"/>
<path fill-rule="evenodd" clip-rule="evenodd" d="M26.9575 29.5698H24.9164V27.5398H26.9575V29.5698ZM28.9987 26.5598C28.9987 25.9998 28.506 25.5098 27.9429 25.5098H23.8606C23.2975 25.5098 22.8048 25.9998 22.8048 26.5598V30.6198C22.8048 31.1798 23.2975 31.6698 23.8606 31.6698H27.9429C28.506 31.6698 28.9987 31.1798 28.9987 30.6198V26.5598Z" fill="white"/>
<path fill-rule="evenodd" clip-rule="evenodd" d="M35.1222 29.5698H33.081V27.5398H35.1222V29.5698ZM37.1634 26.5598C37.1634 25.9998 36.6707 25.5098 36.1076 25.5098H32.0253C31.4622 25.5098 30.9695 25.9998 30.9695 26.5598V30.6198C30.9695 31.1798 31.4622 31.6698 32.0253 31.6698H36.1076C36.6707 31.6698 37.1634 31.1798 37.1634 30.6198V26.5598Z" fill="white"/>
<path fill-rule="evenodd" clip-rule="evenodd" d="M10.5578 37.7597H8.51663V35.7297H10.5578V37.7597ZM11.6136 33.6997H7.53124C6.96816 33.6997 6.47546 34.1897 6.47546 34.7497V38.8097C6.47546 39.3697 6.96816 39.8597 7.53124 39.8597H11.6136C12.1767 39.8597 12.6694 39.3697 12.6694 38.8097V34.7497C12.599 34.1197 12.1767 33.6997 11.6136 33.6997Z" fill="white"/>
<path fill-rule="evenodd" clip-rule="evenodd" d="M18.7929 37.7597H16.7517V35.7297H18.7929V37.7597ZM19.7783 33.6997H15.6959C15.1328 33.6997 14.6401 34.1897 14.6401 34.7497V38.8097C14.6401 39.3697 15.1328 39.8597 15.6959 39.8597H19.7783C20.3413 39.8597 20.834 39.3697 20.834 38.8097V34.7497C20.834 34.1197 20.3413 33.6997 19.7783 33.6997Z" fill="white"/>
<path fill-rule="evenodd" clip-rule="evenodd" d="M26.9575 37.7597H24.9164V35.7297H26.9575V37.7597ZM27.9429 33.6997H23.8606C23.2975 33.6997 22.8048 34.1897 22.8048 34.7497V38.8097C22.8048 39.3697 23.2975 39.8597 23.8606 39.8597H27.9429C28.506 39.8597 28.9987 39.3697 28.9987 38.8097V34.7497C28.9987 34.1197 28.506 33.6997 27.9429 33.6997Z" fill="white"/>
<path fill-rule="evenodd" clip-rule="evenodd" d="M35.1222 37.7597H33.081V35.7297H35.1222V37.7597ZM36.178 33.6997H32.0956C31.5326 33.6997 31.0399 34.1897 31.0399 34.7497V38.8097C31.0399 39.3697 31.5326 39.8597 32.0956 39.8597H36.178C36.7411 39.8597 37.2337 39.3697 37.2337 38.8097V34.7497C37.1634 34.1197 36.7411 33.6997 36.178 33.6997Z" fill="white"/>
</svg>
