<svg xmlns:xlink="http://www.w3.org/1999/xlink"  width="156" height="38" viewBox="0 0 156 38" fill="none" xmlns="http://www.w3.org/2000/svg"> <path fill-rule="evenodd" clip-rule="evenodd" d="M0.5 18.8998V37.3997H19.3635H38.227V18.8998V0.399902H19.3635H0.5V18.8998ZM31.4401 2.46638C31.3403 2.66319 31.1407 2.9584 31.0409 3.15521C30.4421 3.94244 29.943 4.72967 29.8432 4.92647L29.7434 5.12328L29.8432 5.02488C29.943 5.02488 29.943 4.92647 29.943 4.92647C29.943 4.82807 30.3422 4.53286 30.4421 4.53286C30.4421 4.53286 30.4421 4.63126 30.4421 4.72967C30.3422 4.92647 30.3422 5.22169 30.4421 5.32009C30.4421 5.32009 30.5419 5.32009 30.6417 5.12328C30.7415 4.92648 31.1407 4.43446 31.1407 4.43446C31.1407 4.43446 31.1407 4.63126 31.0409 4.72967C30.9411 5.12328 30.7415 5.5169 30.4421 5.91051C30.3422 6.10732 30.2424 6.20572 30.2424 6.20572C30.2424 6.20572 30.3422 6.20572 30.4421 6.20572H30.6417L30.4421 6.50094C30.3422 6.69774 29.943 7.28817 29.6436 7.97699C29.3442 8.66582 28.945 9.35464 28.7453 9.64985C28.4459 10.1419 28.2463 10.5355 28.2463 10.7323C28.2463 10.8307 26.9488 13.4876 26.5496 14.2748C26.1504 15.0621 26.0506 15.2589 26.0506 15.5541V15.7509L25.7511 16.0461C25.5515 16.2429 25.4517 16.4397 25.3519 16.4397C25.1523 16.6365 25.0525 17.0301 25.1523 17.2269C25.1523 17.3253 25.1523 17.4237 25.0525 17.5222C24.9527 17.8174 23.8548 19.687 23.256 20.7695C22.5573 21.8519 22.5573 21.9503 22.3577 22.5407C22.2579 22.836 21.5592 24.2136 20.7608 25.6897C19.9623 27.1657 19.3635 28.5434 19.3635 28.6418C19.2637 29.0354 18.9643 29.429 18.7647 29.6258C18.565 29.8226 18.3654 30.0194 18.1658 30.7083C18.066 30.9051 17.9662 31.2003 17.8664 31.2987L17.7666 31.4955H17.4672C17.1677 31.4955 17.0679 31.4955 17.0679 31.2987V31.2003C16.9681 31.2003 16.4691 31.4955 16.3693 31.5939C16.2695 31.6923 16.2695 31.7907 16.2695 31.9875C16.2695 32.0859 16.3693 32.1843 16.3693 32.2827C16.3693 32.3811 16.3693 32.3811 16.2695 32.3811C16.1697 32.3811 16.0699 32.3811 15.8702 32.1843L15.5708 31.9875L15.3712 32.1843C15.0718 32.4795 14.972 32.4795 14.8722 32.3811C14.7724 32.2827 14.6726 32.1843 14.6726 32.0859C14.5728 31.8891 14.2733 31.6923 14.2733 31.6923C14.2733 31.6923 14.2733 31.6923 14.1735 31.7907C14.0737 31.9875 13.9739 32.1843 13.8741 32.2827C13.7743 32.3811 13.6745 32.4795 13.6745 32.4795C13.5747 32.4795 12.7762 29.6258 11.5786 24.0168C11.2791 22.836 11.0795 21.8519 10.7801 21.0647C10.3809 19.5886 10.2811 19.4902 10.0815 19.2934C9.98166 19.195 9.98165 19.0966 9.98165 19.0966C9.98165 18.9982 10.4807 18.703 10.5805 18.703C10.6803 18.703 10.7801 18.703 10.8799 18.8014C10.9797 18.8014 11.0795 18.8998 11.1793 18.8998C11.2791 18.8998 11.2791 18.8014 11.1793 18.4078C11.0795 18.3094 11.0795 18.1126 11.0795 18.0142C11.0795 17.9158 11.2791 17.5222 11.3789 17.5222C11.4787 17.5222 11.6784 17.719 11.7782 17.9158C11.878 18.1126 12.0776 18.3094 12.2772 18.5062C12.4768 18.6046 12.4768 18.6046 12.6764 18.3094C12.7762 18.1126 12.7762 18.1126 12.7762 17.9158C12.7762 17.8174 12.7762 17.5222 12.7762 17.3253V17.0301L12.9759 16.9317C13.1755 16.9317 13.1755 16.9317 13.5747 16.9317C13.7743 16.9317 13.9739 17.0301 13.9739 17.0301C14.0737 17.0301 14.1735 16.6365 14.1735 16.3413C14.1735 16.1445 14.1735 16.0461 14.3731 16.0461C14.473 15.9477 15.2714 15.6525 15.2714 15.7509C15.2714 15.7509 15.2714 15.8493 15.3712 16.0461C15.471 16.2429 15.471 16.3413 15.3712 16.6365C15.3712 17.1285 15.3712 17.3253 15.471 17.3253C15.5708 17.2269 15.5708 17.3253 15.5708 17.5222C15.5708 17.719 15.5708 17.8174 15.471 18.0142C15.3712 18.3094 15.3712 18.3094 15.3712 18.8998C15.3712 19.5886 15.471 20.2775 15.6706 21.3599C15.8702 22.4423 16.2695 23.82 16.4691 24.312C16.5689 24.5088 16.5689 24.5088 16.6687 24.4104C16.8683 24.2136 17.2675 23.6232 17.6668 22.6391C18.066 21.8519 18.3654 21.0647 19.0641 19.687C20.0621 17.8174 20.5612 16.9317 20.9604 16.5381C21.3596 16.1445 21.5592 15.7509 22.1581 14.6684C22.3577 14.2748 22.6571 13.7828 22.7569 13.586C22.9565 13.2908 23.256 12.9956 23.256 12.9956C23.3558 12.9956 23.0563 13.6844 22.7569 14.2748C22.3577 14.9637 21.9585 15.8493 21.0602 17.4237C20.162 18.9982 19.0641 21.0647 18.7647 21.8519C18.6648 22.0487 18.3654 22.6391 18.1658 23.2296C17.6668 24.2136 17.3673 24.9024 17.3673 25.0992C17.3673 25.0992 17.3674 25.0992 17.4672 25.0992C17.567 25.0008 17.567 25.0008 17.6668 24.804C17.7666 24.5088 26.4498 8.66582 26.7492 8.2722C26.849 8.07539 27.0486 7.87859 27.348 7.68178C27.8471 7.28816 27.9469 7.18976 28.3461 6.69774C28.5457 6.50093 28.7453 6.20572 28.8451 6.00892C28.9449 5.91051 29.1446 5.6153 29.2444 5.41849C29.3442 5.22169 29.5438 5.02488 29.6436 4.92647C29.8432 4.72967 32.1388 2.36798 32.1388 2.36798C31.5399 2.17117 31.5399 2.26957 31.4401 2.46638Z" fill="black"></path> <path fill-rule="evenodd" clip-rule="evenodd" d="M43.916 9.64984V18.8998H45.9121H47.9082V15.8493V12.7988H48.8065H49.7048L51.2019 15.9477L52.699 18.9982H54.9945H57.2901L57.1903 18.703C57.0905 18.6046 56.292 17.1285 55.4936 15.6525C54.5953 14.078 53.8966 12.7988 53.8966 12.7004C53.8966 12.7004 54.4955 12.7004 55.1941 12.7004H56.4916V6.59932V0.498291H50.2038H43.916V9.64984ZM52.5991 6.59932V8.86261H50.3036H47.9082V6.59932V4.33604H50.2038H52.4993V6.59932H52.5991Z" fill="black"></path> <path fill-rule="evenodd" clip-rule="evenodd" d="M58.887 9.64985V18.8998H64.9752H71.1632V16.9317L71.263 14.9637H67.0712H62.8793V13.2908V11.6179H64.9752H67.171V9.64985V7.68178H65.075H62.8793V6.00892V4.33605H66.9714H71.1632V2.36798V0.399902H64.9752H58.887V9.64985Z" fill="black"></path> <path fill-rule="evenodd" clip-rule="evenodd" d="M72.86 5.91051V11.5195H76.952H81.0441L80.9443 13.1924V14.9637H76.952H72.86V16.9317V18.8998H78.9482H84.9366V13.2908V7.58338H80.9443H76.8522V5.91051V4.33605H80.9443H84.9366V2.36798V0.399902H78.9482H72.86V5.91051Z" fill="black"></path> <path fill-rule="evenodd" clip-rule="evenodd" d="M87.0325 9.64985V18.8998H93.3204H99.6082V9.64985V0.399902H93.3204H87.0325V9.64985ZM95.6159 9.64985V14.9637H93.3204H91.0248V9.64985V4.33605H93.3204H95.6159V9.64985Z" fill="black"></path> <path fill-rule="evenodd" clip-rule="evenodd" d="M101.904 9.64985V18.8998H108.092H114.28L114.38 16.2429V13.586H112.383H110.287V14.2748V14.9637H108.092H105.896V7.68178V0.399902H103.9H101.904V9.64985Z" fill="black"></path> <path fill-rule="evenodd" clip-rule="evenodd" d="M115.378 9.55145C115.378 14.57 115.378 18.8014 115.378 18.8014C115.378 18.8998 118.172 18.8998 121.665 18.8998H127.953V9.64985V0.399902H125.957H123.961V7.68178V14.9637H121.665H119.37V7.68178V0.399902H117.374H115.378V9.55145Z" fill="black"></path> <path fill-rule="evenodd" clip-rule="evenodd" d="M129.151 2.36798V4.33605H131.347H133.543V11.6179V18.8998H135.539H137.535V11.6179V4.33605H139.631H141.827V2.36798V0.399902H135.539H129.151V2.36798Z" fill="black"></path> <path fill-rule="evenodd" clip-rule="evenodd" d="M143.124 9.64985V18.8998H149.212H155.4V16.9317V14.9637H151.308H147.116V13.2908V11.6179H149.212H151.308V9.64985V7.68178H149.212H147.116V6.00892V4.33605H151.208H155.4V2.36798V0.399902H149.212H143.124V9.64985Z" fill="black"></path> <path fill-rule="evenodd" clip-rule="evenodd" d="M43.916 30.3148V37.3999H49.3055H54.6951V34.8414V32.2829H52.8986L51.102 32.1845V32.9717V33.7589H49.4053H47.7086V28.5435V23.2297H45.8123H43.916V30.3148Z" fill="black"></path> <path fill-rule="evenodd" clip-rule="evenodd" d="M57.3899 30.3148V37.3999H62.7795H68.169V30.3148V23.2297H62.7795H57.3899V30.3148ZM64.2766 30.3148V33.7589H62.5798H60.8831V30.3148C60.8831 28.4451 60.8831 26.8707 60.9829 26.8707C60.9829 26.8707 61.7814 26.7723 62.6797 26.7723H64.2766V30.3148Z" fill="black"></path> <path fill-rule="evenodd" clip-rule="evenodd" d="M71.7621 30.3148V37.3999H77.1517H82.4414V34.0541V30.8068H80.5451H78.7486V32.4797V34.1526H77.1517H75.5547V30.5116V26.7723H78.9482H82.4414V25.001V23.2297H77.1517H71.7621V30.3148Z" fill="black"></path> <path fill-rule="evenodd" clip-rule="evenodd" d="M85.735 25.0007V26.772H86.3339C86.6333 26.772 86.9327 26.8704 86.9327 26.8704C86.9327 26.9688 86.9327 28.4449 86.9327 30.3145V33.6603H86.3339H85.735V35.4315V37.3996H88.8291H91.9231V35.6283V33.8571H91.3242H90.8252V30.4129V26.9688H91.424H92.0229V25.1975V23.4263H88.9289H85.8349V25.0007H85.735Z" fill="black"></path> <path fill-rule="evenodd" clip-rule="evenodd" d="M95.6159 27.4611V31.7909H99.0093H102.303V33.0701V34.3494H99.0093H95.6159V35.9238V37.3999H100.806H106.096V33.0701V28.7403H102.702L99.3088 28.6419V27.4611V26.2803H102.702H106.096V24.7058V23.2297H100.806H95.6159V27.4611Z" fill="black"></path> <path fill-rule="evenodd" clip-rule="evenodd" d="M108.291 25.001V26.7723H110.088L111.785 26.8707V32.0861V37.3999H113.681H115.477V32.0861V26.7723H117.274H118.971V25.001V23.2297H113.681H108.291V25.001Z" fill="black"></path> <path fill-rule="evenodd" clip-rule="evenodd" d="M120.967 25.001V26.7723H121.666L122.264 26.8707V30.3148V33.7589L121.666 33.8573H120.967V35.6286V37.3999H124.161H127.355V35.6286L127.255 33.8573H126.656L125.957 33.7589V30.3148V26.7723H126.656H127.355V25.001V23.2297H124.161H120.967V25.001Z" fill="black"></path> <path fill-rule="evenodd" clip-rule="evenodd" d="M130.748 30.3148V37.3999H136.137H141.527L141.427 34.8414V32.2829H139.631H137.734V33.0701V33.7589H136.137H134.541V30.3148V26.7723H136.137H137.734V27.5595V28.4451L139.531 28.3467H141.427V25.7882L141.527 23.2297H136.137H130.748V30.3148Z" fill="black"></path> <path fill-rule="evenodd" clip-rule="evenodd" d="M145.02 27.4611V31.7909H148.414H151.807V33.0701V34.3494H148.414H145.02V35.9238V37.3999H150.31H155.5V33.0701V28.7403H152.206H148.813V27.4611V26.2803H152.206H155.5V24.7058V23.2297H150.31H145.02V27.4611Z" fill="black"></path> </svg>