<svg xmlns:xlink="http://www.w3.org/1999/xlink"  width="178" height="179" viewBox="0 0 178 179" fill="none" xmlns="http://www.w3.org/2000/svg"> <path d="M122.507 143.477C152.341 125.041 161.58 85.911 143.144 56.0777C124.708 26.2443 85.5785 17.0048 55.7451 35.4407C25.9118 53.8766 16.6723 93.0065 35.1082 122.84C53.544 152.673 92.674 161.913 122.507 143.477Z" stroke="#FFEC55" stroke-width="2.0001" stroke-miterlimit="22.9256"></path> <path d="M103.059 147.65C135.306 140.024 155.284 107.696 147.679 75.4433C140.075 43.1906 107.768 23.2266 75.5202 30.8524C43.2725 38.4782 23.2953 70.8061 30.8999 103.059C38.5045 135.312 70.8111 155.276 103.059 147.65Z" fill="#FFEC55"></path> <path fill-rule="evenodd" clip-rule="evenodd" d="M103.482 89.1484L92.4824 95.326L81.4824 101.6V89.1484V76.6001L92.4824 82.8742L103.482 89.1484Z" fill="#1A1A1A" stroke="#1A1A1A" stroke-width="4" stroke-miterlimit="22.9256" stroke-linecap="round" stroke-linejoin="round"></path> </svg>