<svg xmlns:xlink="http://www.w3.org/1999/xlink"  width="70" height="70" viewBox="0 0 70 70" fill="none" xmlns="http://www.w3.org/2000/svg"> <rect x="1" y="1" width="68" height="68" fill="white" stroke="white" stroke-width="2"></rect> <g clip-path="url(#clip0)"> <rect width="47.3958" height="58.3333" transform="translate(13.8542 5.8335)" fill="white"></rect> <path d="M60.8708 6.39801C60.6812 6.58618 60.1124 7.33887 59.9229 7.71522C58.5958 9.40876 57.4583 10.726 57.2687 11.1023L57.0791 11.4787L57.2687 11.2905C57.2687 11.2905 57.4583 11.2905 57.4583 11.1023C57.4583 11.1023 58.4062 10.3496 58.4062 10.5378C58.5958 10.5378 58.4062 10.726 58.4062 10.9141C58.2166 11.2905 58.2166 11.855 58.4062 12.0432C58.4062 12.0432 58.5958 11.855 58.5958 11.6668C58.9749 11.1023 59.7333 10.1615 59.7333 10.3496C59.7333 10.3496 59.7333 10.5378 59.5437 10.9141C59.3541 11.4787 58.9749 12.4195 58.4062 13.1722C58.027 13.5486 57.8374 13.7367 57.8374 13.7367C57.8374 13.7367 58.027 13.7367 58.4062 13.7367H58.7854L58.4062 14.3012C58.2166 14.6776 57.4583 15.9948 56.6999 17.1238C55.9416 18.441 55.1833 19.9464 54.8041 20.3227C54.2354 21.2636 53.8562 22.0163 53.6666 22.3926C53.6666 22.769 51.0124 27.6615 50.0645 29.355C49.1166 30.8604 48.927 31.2367 49.1166 31.8012V32.1776L48.5479 32.5539C48.1687 32.9303 47.7895 33.3066 47.5999 33.4948C47.4104 33.8711 47.0312 34.6238 47.2208 35.0002C47.2208 35.1883 47.2208 35.3765 47.0312 35.5647C46.8416 36.1292 44.5666 39.8926 43.0499 41.7744C41.7229 44.0324 41.7229 44.0324 41.1541 45.1615C40.7749 45.726 39.4479 48.3604 37.7416 51.3711C36.2249 54.1937 34.7083 56.6399 34.7083 56.8281C34.3291 57.5808 33.9499 58.3335 33.3812 58.898C32.8124 59.2744 32.6229 59.6507 32.0541 60.7797C31.8645 61.3442 31.4854 61.7206 31.2958 61.9088L31.1062 62.2851H30.5374C29.9687 62.2851 29.5895 62.2851 29.5895 62.0969C29.5895 61.9088 29.5895 61.9088 29.5895 61.9088C29.3999 61.9088 28.2624 62.4733 28.0729 62.6615C27.6937 62.8496 27.6937 63.0378 27.8833 63.4141C27.8833 63.6023 28.0729 63.7905 28.0729 63.7905C28.0729 63.9787 27.8833 63.9787 27.6937 64.1668C27.5041 64.1668 27.5041 63.9787 26.9354 63.6023L26.3666 63.226L25.7979 63.6023C25.2291 64.1668 25.0395 64.1668 24.6604 63.9787C24.6604 63.7905 24.2812 63.6023 24.2812 63.4141C23.902 63.0378 23.5229 62.4733 23.3333 62.4733L23.1437 62.6615C22.9541 63.0378 22.7645 63.4141 22.3854 63.6023C22.1958 63.7905 22.0062 63.9787 22.0062 63.9787C21.627 63.9787 20.1104 58.5217 17.2666 47.7959C16.8874 45.5378 16.3187 43.6561 15.7499 41.9625C14.802 39.3281 14.802 39.1399 14.4229 38.5754C14.2333 38.3873 14.0437 38.1991 14.0437 38.1991C14.0437 38.0109 14.9916 37.4464 15.3708 37.4464C15.3708 37.4464 15.7499 37.6346 15.9395 37.6346C16.1291 37.6346 16.3187 37.8227 16.5083 37.8227C16.6979 37.8227 16.6979 37.4464 16.3187 36.8819C16.3187 36.5055 16.1291 36.1292 16.1291 36.1292C16.1291 35.7529 16.6979 35.0002 16.6979 35.0002C16.8874 35.0002 17.4562 35.5647 17.6458 35.941C17.8354 36.3174 18.4041 36.6937 18.7833 37.0701C19.1624 37.2582 19.352 37.2582 19.5416 36.6937C19.9208 36.3174 19.9208 36.3174 19.7312 35.941C19.7312 35.5647 19.7312 35.1883 19.7312 34.812V34.2475L20.1104 34.0593C20.4895 34.0593 20.6791 34.0593 21.2479 34.0593C21.8166 34.2475 22.1958 34.2475 22.1958 34.2475C22.3854 34.2475 22.5749 33.4948 22.7645 32.9303C22.7645 32.5539 22.7645 32.5539 22.9541 32.3658C23.3333 32.1776 24.8499 31.6131 25.0395 31.8012C25.0395 31.8012 25.0395 31.9894 25.2291 32.1776C25.2291 32.7421 25.2291 32.7421 25.2291 33.3066C25.2291 34.2475 25.2291 34.812 25.4187 34.6238C25.7979 34.6238 25.7979 34.6238 25.7979 35.0002C25.7979 35.3765 25.6083 35.5647 25.4187 35.941C25.2291 36.5055 25.2291 36.6937 25.2291 37.8227C25.2291 39.1399 25.4187 40.4572 25.9874 42.527C26.3666 44.5969 27.1249 47.2313 27.6937 48.1722C27.6937 48.5485 27.6937 48.5485 27.8833 48.3604C28.452 48.1722 29.2104 46.855 30.1583 44.9733C30.9166 43.4679 31.6749 41.9625 33.1916 39.3281C35.277 35.7528 36.4145 34.0593 37.1729 33.3066C37.9312 32.5539 38.4999 31.8012 39.827 29.5432C40.3958 28.7905 40.9645 27.8496 41.1541 27.6615C41.5333 27.0969 42.102 26.5324 42.2916 26.5324C42.2916 26.5324 41.7229 27.8496 41.1541 28.9787C40.3958 30.484 39.2583 32.1776 37.3624 35.0002C35.4666 38.0109 33.1916 42.1507 32.4333 43.6561C32.2437 43.8442 31.6749 44.9733 31.1062 46.1023C29.9687 47.984 29.3999 49.4894 29.3999 49.6776C29.3999 49.8658 29.3999 49.6776 29.5895 49.6776C29.7791 49.4894 29.9687 49.3012 29.9687 49.1131C30.3479 48.5485 48.927 18.0647 49.4958 17.312C49.8749 16.9356 50.2541 16.5593 50.8229 16.183C51.7708 15.4303 52.1499 15.2421 52.9083 14.1131C53.2874 13.7367 53.6666 13.1722 53.8562 12.984C54.2354 12.6077 54.6145 12.2313 54.8041 11.855C55.1833 11.4787 55.3729 10.9141 55.5624 10.726C55.9416 10.3496 61.0604 5.8335 61.0604 5.8335C61.0604 5.8335 61.0604 6.02167 60.8708 6.39801Z" fill="black"></path> </g> <defs> <clipPath id="clip0"> <rect width="47.3958" height="58.3333" fill="white" transform="translate(13.8542 5.8335)"></rect> </clipPath> </defs> </svg>