<svg width="40" height="47" viewBox="0 0 40 47" fill="none" xmlns="http://www.w3.org/2000/svg">
<path d="M36.8761 38.3577V39.3577H37.8761H39V42.6852H36.2242H35.2242V43.6852V45.5793C35.2242 45.7501 35.1672 45.8448 35.1177 45.8945C35.0683 45.944 34.9756 46 34.8082 46H31.0325C30.8651 46 30.7724 45.944 30.7231 45.8945C30.6735 45.8448 30.6165 45.7501 30.6165 45.5793V43.6852V42.6852H29.6165H10.3835H9.38353V43.6852V45.5793C9.38353 45.7501 9.32657 45.8448 9.27701 45.8945C9.22767 45.944 9.13493 46 8.96759 46H5.19177C5.02442 46 4.93168 45.944 4.88234 45.8945C4.83278 45.8448 4.77582 45.7501 4.77582 45.5793V43.6852V42.6852H3.77582H1V39.3577H1.88795H2.88795V38.3577V31.136C2.88795 30.1461 3.74128 29.2947 4.71976 29.2947H5.42777H6.42777V28.2947V2.07323L7.61362 1.28003V9.23426L9.56263 9.54952L10.0284 8.14736C10.599 6.64038 12 5.61713 13.6873 5.61713H25.9587C27.548 5.61713 29.0621 6.66096 29.6238 8.16371L29.6301 8.18054L29.6369 8.19713L30.2269 9.61779L32.1504 9.23426V1.28003L33.3363 2.07323V28.2947V29.2947H34.3363H35.0442C36.0228 29.2947 36.8761 30.1461 36.8761 31.136V38.3577ZM9.55756 12.0227H8.55756V13.0227V20.0076V21.0076H9.55756H30.2065H31.2065V20.0076V13.0227V12.0227H30.2065H9.55756ZM6.72567 37.3451H9.08555C10.3489 37.3451 11.3835 36.3024 11.3835 35.0428C11.3835 33.7833 10.3489 32.7406 9.08555 32.7406H6.72567C5.46225 32.7406 4.42777 33.7834 4.42777 35.0428C4.42777 36.3023 5.46227 37.3451 6.72567 37.3451ZM15.1033 37.7003H24.6608C26.0421 37.7003 27.0767 36.6575 27.0767 35.2796V26.4005C27.0767 25.0226 26.0421 23.9799 24.6608 23.9799H15.1033C13.7219 23.9799 12.6873 25.0226 12.6873 26.4005V35.2796C12.6873 36.6575 13.7219 37.7003 15.1033 37.7003ZM30.7965 37.3451H33.1564C34.4198 37.3451 35.4543 36.3023 35.4543 35.0428C35.4543 33.7834 34.4198 32.7406 33.1564 32.7406H30.7965C29.5331 32.7406 28.4985 33.7833 28.4985 35.0428C28.4985 36.3024 29.5331 37.3451 30.7965 37.3451Z" stroke="white" stroke-width="2"/>
</svg>
