<svg width="96" height="37" viewBox="0 0 96 37" fill="none" xmlns="http://www.w3.org/2000/svg">
<path fill-rule="evenodd" clip-rule="evenodd" d="M14.162 18.0798C18.0332 18.0798 21.1302 14.2998 21.1302 9.67978C21.1302 5.05978 20.0744 1.27979 14.162 1.27979C8.24966 1.27979 7.19391 5.05978 7.19391 9.67978C7.19391 14.3698 10.3612 18.0798 14.162 18.0798Z" stroke="white" stroke-width="2" stroke-miterlimit="10" stroke-linecap="round" stroke-linejoin="round"/>
<path fill-rule="evenodd" clip-rule="evenodd" d="M1 30.9598C1 30.8198 1 30.8198 1 30.8198C1 30.8898 1 30.8898 1 30.9598Z" stroke="white" stroke-width="2" stroke-miterlimit="22.9256" stroke-linecap="round" stroke-linejoin="round"/>
<path fill-rule="evenodd" clip-rule="evenodd" d="M27.3241 30.6098C27.1833 22.4898 26.1275 20.1798 17.9628 18.7798C17.9628 18.7798 16.8367 20.2498 14.162 20.2498C11.4874 20.2498 10.3612 18.7798 10.3612 18.7798C2.33732 20.2498 1.21114 22.4898 1.07037 30.3998C1.07037 31.0298 1.07037 31.0998 1.07037 31.0298C1.07037 31.1698 1.07037 31.4498 1.07037 31.8698C1.07037 31.8698 3.04117 35.7198 14.2324 35.7198C25.4237 35.7198 27.3945 31.8698 27.3945 31.8698C27.3945 31.5898 27.3945 31.3798 27.3945 31.2398C27.3241 31.2398 27.3241 31.0998 27.3241 30.6098Z" stroke="white" stroke-width="2" stroke-miterlimit="10" stroke-linecap="round" stroke-linejoin="round"/>
<path fill-rule="evenodd" clip-rule="evenodd" d="M81.5206 18.0798C85.3918 18.0798 88.4887 14.2998 88.4887 9.67978C88.4887 5.05978 87.433 1.27979 81.5206 1.27979C75.6083 1.27979 74.5525 5.05978 74.5525 9.67978C74.5525 14.3698 77.7198 18.0798 81.5206 18.0798Z" stroke="white" stroke-width="2" stroke-miterlimit="10" stroke-linecap="round" stroke-linejoin="round"/>
<path fill-rule="evenodd" clip-rule="evenodd" d="M68.3586 30.9598C68.3586 30.8198 68.3586 30.8198 68.3586 30.8198C68.3586 30.8898 68.3586 30.8898 68.3586 30.9598Z" stroke="white" stroke-width="2" stroke-miterlimit="22.9256" stroke-linecap="round" stroke-linejoin="round"/>
<path fill-rule="evenodd" clip-rule="evenodd" d="M94.6826 30.6098C94.5419 22.4898 93.486 20.1798 85.3214 18.7798C85.3214 18.7798 84.1953 20.2498 81.5207 20.2498C78.846 20.2498 77.7198 18.7798 77.7198 18.7798C69.696 20.2498 68.5698 22.4898 68.429 30.3998C68.429 31.0298 68.429 31.0998 68.429 31.0298C68.429 31.1698 68.429 31.4498 68.429 31.8698C68.429 31.8698 70.3998 35.7198 81.591 35.7198C92.7822 35.7198 94.753 31.8698 94.753 31.8698C94.753 31.5898 94.753 31.3798 94.753 31.2398C94.6826 31.2398 94.6826 31.0998 94.6826 30.6098Z" stroke="white" stroke-width="2" stroke-miterlimit="10" stroke-linecap="round" stroke-linejoin="round"/>
<path d="M35.2775 9.81982H59.3493" stroke="white" stroke-width="2" stroke-miterlimit="22.9256" stroke-linecap="round" stroke-linejoin="round"/>
<path d="M53.2257 3.72974L59.3493 9.81974" stroke="white" stroke-width="2" stroke-miterlimit="22.9256" stroke-linecap="round" stroke-linejoin="round"/>
<path d="M53.2257 15.9098L59.3493 9.81982" stroke="white" stroke-width="2" stroke-miterlimit="22.9256" stroke-linecap="round" stroke-linejoin="round"/>
<path d="M59.9124 27.1797H35.8407" stroke="white" stroke-width="2" stroke-miterlimit="22.9256" stroke-linecap="round" stroke-linejoin="round"/>
<path d="M41.8938 21.0898L35.8407 27.1798" stroke="white" stroke-width="2" stroke-miterlimit="22.9256" stroke-linecap="round" stroke-linejoin="round"/>
<path d="M41.8938 33.1997L35.8407 27.1797" stroke="white" stroke-width="2" stroke-miterlimit="22.9256" stroke-linecap="round" stroke-linejoin="round"/>
</svg>
